<svg xmlns="http://www.w3.org/2000/svg" width="1200" height="720" viewBox="0 0 1200 720">
<defs><marker id="arrow" viewBox="0 0 10 10" refX="9" refY="5" markerWidth="7" markerHeight="7" orient="auto-start-reverse"><path d="M 0 0 L 10 5 L 0 10 z" fill="#466956"/></marker></defs>
<rect width="1200" height="720" fill="#f5f8ef"/>
<g font-family="Microsoft YaHei, sans-serif" fill="#274d3c">
<text x="60" y="66" font-size="32" font-weight="700">本地评论：从输入到持久化</text>
<text x="60" y="102" font-size="18" fill="#547461">纯前端 · 直接打开 HTML · 每条启事使用独立的存储键</text>
<g stroke="#466956" stroke-width="3" fill="none" marker-end="url(#arrow)">
<path d="M300 203H440"/><path d="M700 203H880"/><path d="M1010 248V422"/><path d="M880 467H700"/><path d="M440 467H300"/>
<path d="M880 218L700 322" stroke-dasharray="6 6"/><path d="M880 447L700 365" stroke-dasharray="6 6"/>
</g>
<g stroke="#c4d6bd" stroke-width="2" fill="#fff">
<rect x="60" y="158" width="240" height="90" rx="18"/><rect x="440" y="158" width="260" height="90" rx="18"/><rect x="880" y="158" width="260" height="90" rx="18"/>
<rect x="880" y="422" width="260" height="90" rx="18"/><rect x="440" y="422" width="260" height="90" rx="18"/><rect x="60" y="422" width="240" height="90" rx="18"/>
<rect x="440" y="297" width="260" height="90" rx="18" fill="#fff4e5" stroke="#dfbc82"/>
</g>
<g text-anchor="middle" font-size="22" font-weight="700">
<text x="180" y="195">选择启事，打开详情</text><text x="570" y="195">输入昵称与线索</text><text x="1010" y="195">校验空白与长度</text>
<text x="1010" y="459">写入启事专属存储键</text><text x="570" y="459">更新评论，清空正文</text><text x="180" y="459">刷新后重新读取评论</text><text x="570" y="334">校验或保存失败</text>
</g>
<g text-anchor="middle" font-size="15" fill="#547461">
<text x="180" y="225">保留启事原有的稳定 ID</text><text x="570" y="225">昵称 2～24 字，正文 1～500 字</text><text x="1010" y="225">提交期间禁用按钮，避免重复</text>
<text x="1010" y="489">localStorage · 仅当前浏览器</text><text x="570" y="489">普通文本展示，按时间从早到晚</text><text x="180" y="489">各启事的评论互不串线</text><text x="570" y="364">显示提示，保留输入和原数据</text>
<text x="1070" y="338">通过</text><text x="785" y="264">不通过</text><text x="800" y="407">写入失败</text>
</g>
<rect x="60" y="582" width="1080" height="78" rx="16" fill="#e4eddd"/>
<text x="84" y="615" font-size="18">不同浏览器或设备之间不会同步。删除自己的启事时，只清理该启事的评论。</text>
<text x="84" y="644" font-size="16" fill="#547461">现有启事、照片及发布者标识继续使用原存储键，升级无需清空浏览器数据。</text>
</g></svg>